<svg xmlns="http://www.w3.org/2000/svg" width="422" height="222" viewBox="0 0 422 222">
    <g fill="none" fill-rule="evenodd">
        <path stroke="#8316B5" stroke-linecap="round" stroke-linejoin="round" d="M148.248 182.622c-4.473-12.273 14.656-12.158 18.323-14.297 3.667-2.139 10.39-6.112 9.168-14.363-1.222-8.251-3.667-10.39-5.501.305-1.833 10.697 18.084 3.346 18.084 3.346V89.321c0-1.104.884-1.994 1.979-1.994h12.303c1.097 0 1.981.89 1.981 1.994v34.121l14.661-16.425c.374-.428.905-.667 1.475-.667h15.454c.782 0 1.491.458 1.806 1.178.32.722.19 1.56-.337 2.144L217.73 131.93l22.42 24.331c.54.577.681 1.426.361 2.148-.312.726-1.022 1.195-1.81 1.195h-15.278c-.553 0-1.078-.238-1.458-.643l-17.38-18.957v17.608c0 1.1-.884 1.992-1.981 1.992H190.3s-9.978 7.498 9.887 9.943c19.864 2.445 53.377 6.417 59.795-9.169 6.418-15.585 4.278-38.2-6.724-29.949-11.001 8.252-4.948 21.032 20.945 46.487 0 0 13.166 11.41 2.633 22.382-10.533 10.972 28.527 15.36 28.527 15.36" transform="translate(1 1)"/>
        <path stroke="#8316B5" d="M43.579 36.44s.709-5.67 0-10.632c-.709-4.961-2.48-4.961 0-9.569 2.48-4.607 3.19-6.025 4.252-9.214 1.064-3.19 4.43-.886 5.848-3.013C55.097 1.886 57.578-.95 59.35.468c1.772 1.418 4.607.355 5.316-.354.709-.71 1.417 2.126 5.67 2.126s4.608-2.48 7.089 1.418c2.48 3.899 8.15 5.316 7.087 8.506-1.063 3.19 1.064 4.252 2.482 6.024 1.417 1.773 2.48 3.544 2.126 9.924-.355 6.38 0 6.38 0 6.38s3.544 0 2.48 3.897c-1.062 3.899-3.898 13.113-4.96 13.468-1.064.354-1.773-.355-1.773.709 0 0-1.418 7.442-3.19 10.632 0 0-1.417 4.607-.354 6.734 1.063 2.126 3.544 8.505 13.822 11.695 10.277 3.19 26.934 7.797 27.643 9.569 0 0 3.544 8.86 5.317 25.163 1.771 16.302 7.796 42.528 4.961 55.64-2.836 13.114-6.734 18.43-10.632 19.139-3.899.708-7.442 0-7.442 0s-28.353 0-32.96.354c-4.607.354-4.962 3.19-4.607 0 .354-3.19 1.063-18.429 2.835-16.303 1.772 2.127 7.087 10.987 11.695 11.341 4.607.355 10.278-.354 10.987.355 0 0 2.126-1.772-1.418-2.127-3.544-.354-8.882 5.3-14.53 1.063-5.67-4.252-6.734-8.86-6.734-8.86" transform="translate(1 1)"/>
        <path fill="#8316B5" stroke="#8316B5" stroke-width=".3" d="M133.58 164.859c-2.218.36-4.467.411-6.709.372-2.133-.037-4.278-.082-6.404-.262-3.843-.326-7.892-1.4-10.397-4.549-.264-.331-.727.137-.465.465 1.87 2.351 4.704 3.672 7.592 4.282 3.421.722 7.044.711 10.528.732 2.019.013 4.035-.081 6.03-.405.417-.068.24-.703-.175-.635" transform="translate(1 1)"/>
        <path fill="#8316B5" stroke="#8316B5" stroke-width=".3" d="M109.443 160.891c2.426 2.784 4.242 6.125 6.044 9.329.86 1.53 1.742 3.271 3.426 4.034.768.348 1.635.458 2.467.326.663-.105 1.735-.387 1.845-1.189.063-.455-.24-.82-.53-1.131-.446-.476-.915-.93-1.372-1.395l-2.896-2.943c-.297-.303-.763.163-.466.465 1.42 1.443 2.902 2.845 4.268 4.338.244.267.406.553.094.862-.132.13-.427.195-.608.248-.446.13-.916.17-1.377.127-.897-.085-1.694-.507-2.326-1.138-1.096-1.093-1.759-2.597-2.517-3.927-.815-1.433-1.65-2.855-2.534-4.247-.93-1.465-1.91-2.913-3.053-4.224-.279-.32-.743.147-.465.465M101.263 168.47c2.74 6.141 7.39 11.378 13.125 14.883 1.602.978 3.286 1.81 5.029 2.503.394.157.565-.48.175-.635-6.115-2.432-11.432-6.773-15.09-12.239-1.027-1.535-1.918-3.157-2.671-4.844-.173-.387-.74-.052-.568.332" transform="translate(1 1)"/>
        <path fill="#8316B5" stroke="#8316B5" stroke-width=".4" d="M87.772 78.249c3.103 4.222 6.113 8.718 8.18 13.551.166.389.733.053.568-.333-2.066-4.832-5.076-9.329-8.18-13.55-.248-.338-.819-.01-.568.332" transform="translate(1 1)"/>
        <path fill="#8316B5" stroke="#8316B5" stroke-width=".4" d="M96.917 91.575c-.922.113-1.84.257-2.756.402-.923.145-1.87.223-2.785.406-.356.07-.664.264-.81.607-.148.348-.107.741-.092 1.11l.12 2.896c.01.256.269.4.495.284 1.431-.736 3.173-.38 4.677-.097.414.079.592-.556.175-.634-1.697-.32-3.575-.666-5.185.162l.496.285-.103-2.482c-.015-.366-.09-.787-.014-1.148.081-.387.53-.367.848-.408 1.65-.212 3.284-.522 4.934-.725.415-.05.42-.71 0-.658" transform="translate(1 1)"/>
        <path fill="#8316B5" stroke="#8316B5" stroke-width=".4" d="M95.71 96.562c-3.972 8.667-6.571 17.848-9.46 26.909-1.44 4.518-2.965 9.014-4.78 13.398-.736 1.775-1.568 3.508-2.297 5.286-.64 1.56-1.23 3.142-1.81 4.726-1.314 3.602-2.536 7.236-3.8 10.855-.14.401.496.573.635.175 1.096-3.141 2.161-6.294 3.284-9.426.595-1.662 1.203-3.319 1.848-4.961.636-1.62 1.365-3.193 2.057-4.788 3.763-8.67 6.265-17.798 9.18-26.77 1.66-5.113 3.47-10.182 5.712-15.072.174-.382-.393-.717-.57-.332M46.534 50.83c-1.452-.101-2.998-.293-3.805-1.669-.744-1.27-.783-2.901-.892-4.328-.132-1.73-.184-3.467-.156-5.203.013-.737-.058-1.585.165-2.298.3-.956 1.234-.742 1.98-.495.404.133.577-.502.175-.635-.705-.233-1.542-.44-2.192.045-.57.424-.693 1.157-.737 1.824-.143 2.17-.067 4.378.09 6.546.12 1.647.155 3.57 1.08 5.01.96 1.493 2.65 1.747 4.292 1.862.423.03.421-.63 0-.659" transform="translate(1 1)"/>
        <path fill="#8316B5" stroke="#8316B5" stroke-width=".4" d="M46.44 51.325c-.419 4.286.725 8.65 2.998 12.29 1.155 1.847 2.597 3.42 4.226 4.854 1.423 1.253 2.9 2.484 4.556 3.418 1.496.843 3.123 1.389 4.825 1.618 1.716.23 3.438.141 5.16.037 1.692-.103 3.4-.228 5.069-.542.612-.116 1.244-.252 1.803-.54.614-.315 1.155-.798 1.635-1.288 1.437-1.468 2.552-3.26 3.566-5.036.94-1.647 1.791-3.346 2.57-5.076.172-.383-.395-.718-.569-.332-1.37 3.045-2.921 6.128-4.984 8.768-.83 1.062-1.821 2.229-3.157 2.627-1.51.448-3.137.556-4.7.676-3.28.252-6.657.471-9.74-.902-1.622-.722-3.068-1.782-4.427-2.913-1.603-1.335-3.15-2.734-4.394-4.42-2.79-3.786-4.238-8.54-3.779-13.239.041-.421-.618-.418-.658 0M89.131 34.03c-1.93 1.413-3.217 3.666-4.088 5.85-.332.832-.772 1.62-1.157 2.428-.358.75-.77 1.563-.858 2.401-.132 1.263 1.203 1.601 2.026.826.897-.845 1.239-2.299 1.513-3.448.364-1.523.58-3.083.745-4.64.085-.798.2-1.62.202-2.425.005-2.271-1.592-4.283-2.787-6.074-.695-1.041-1.372-2.12-1.744-3.324-.388-1.258-.473-2.58-.763-3.86-.276-1.218-.776-2.38-1.7-3.247-.815-.766-1.85-1.267-2.922-1.56-2.94-.802-5.961.052-8.936.087-3.076.037-6.095-.642-9.137-.988-2.715-.308-5.636-.396-8.2.699-2.375 1.014-3.794 3.026-4.129 5.566-.171 1.306-.103 2.627.01 3.934.099 1.15.22 2.29.426 3.425.206 1.131.451 2.264.517 3.415.058 1.01-.002 2.15-.685 2.959-.213.252-.618.412-.67.747-.013.085.008.185.011.27.021.518.036 1.037.046 1.556.031 1.543.04 3.094-.077 4.634-.044.59-.08 1.228-.277 1.792-.041.118-.114.274-.145.29.098-.052.004 0-.065-.03-.073-.032-.132-.052-.193-.106-.338-.308-.303-.998-.293-1.406.017-.75.147-1.497.3-2.231.282-1.355.67-2.69 1.105-4.002.076-.23.153-.459.234-.686.144-.4-.492-.571-.634-.175-.367 1.02-.682 2.062-.962 3.11-.407 1.525-.913 3.298-.646 4.889.083.497.307 1.028.819 1.21.475.17.827-.015 1.027-.458.262-.584.309-1.282.365-1.91.08-.88.104-1.765.114-2.647.014-1.369-.008-2.74-.07-4.106l-.164.284c2.46-1.743 1.372-5.345.938-7.795-.299-1.685-.465-3.436-.476-5.147-.012-1.82.28-3.743 1.52-5.16 2.64-3.015 7.5-2.628 11.064-2.163 2.097.274 4.181.659 6.292.818 2.22.167 4.373-.122 6.582-.293 1.877-.146 3.84-.107 5.559.76 1.741.88 2.546 2.417 2.908 4.275.34 1.746.52 3.452 1.355 5.053.77 1.474 1.824 2.772 2.663 4.204.608 1.036 1.189 2.258 1.157 3.488-.015.574-.082 1.15-.136 1.721-.198 2.076-.462 4.192-1.087 6.188-.219.701-.499 1.624-1.104 2.1-.177.138-.508.287-.725.137-.291-.202-.063-.82.016-1.078.38-1.235 1.069-2.36 1.604-3.53.664-1.452 1.26-2.86 2.22-4.158.52-.704 1.115-1.381 1.824-1.9.339-.249.01-.82-.332-.57" transform="translate(1 1)"/>
        <path fill="#8316B5" d="M50.893 66.3c-.066 1.536-.269 2.809-.527 4.315-.06.35.093.709.46.81.316.087.75-.107.81-.46.265-1.55.506-3.093.573-4.666.015-.356-.314-.658-.658-.658-.37 0-.643.302-.658.658" transform="translate(1 1)"/>
        <path fill="#8316B5" stroke="#8316B5" stroke-width=".4" d="M50.713 70.577c-.016 3.917 2.481 7.137 4.735 10.112 1.306 1.723 2.546 3.487 3.665 5.337 1.075 1.778 1.982 3.639 2.98 5.458.99 1.804 2.153 3.514 3.828 4.747.342.251.67-.32.332-.569-1.483-1.09-2.53-2.62-3.423-4.207-.956-1.7-1.793-3.463-2.783-5.146-1.064-1.811-2.233-3.559-3.492-5.24-1.115-1.488-2.278-2.947-3.253-4.535-1.113-1.814-1.94-3.8-1.931-5.957.002-.424-.657-.425-.658 0" transform="translate(1 1)"/>
        <path fill="#8316B5" stroke="#8316B5" stroke-width=".4" d="M64.933 159.837c.302-2.973.425-5.982.383-8.97-.03-2.071-.178-4.127-.529-6.17-.123-.725-.18-1.464-.234-2.199-.433-5.845-.43-11.735-.495-17.593-.072-6.384-.084-12.768-.15-19.15-.018-1.688-.003-3.386-.11-5.07-.01-.174-.034-.344-.05-.517-.072-.73.32-1.407.711-1.999.802-1.215 1.895-2.163 2.836-3.26 3.333-3.882 6.402-7.988 8.97-12.42 1.303-2.249 2.482-4.569 3.568-6.93.291-.633.576-1.27.855-1.907.156-.358.349-.712.442-1.09.06-.243.101-.489.17-.73.079-.281.247-.523.336-.782-.135.393-.166-.16-.113.058.014.059.085.156.113.21.073.141.14.285.218.425.224.402.48.788.716 1.183.54.901 1.008 1.857 1.167 2.906.134.885-.013 1.734-.212 2.588-.298 1.276-.603 2.55-.904 3.824-1.198 5.058-2.386 10.118-3.556 15.181-1.607 6.958-3.185 13.923-4.71 20.898-1.558 7.115-3.068 14.24-4.454 21.39-1.081 5.577-2.14 11.179-2.82 16.822-.115.95-.216 1.902-.288 2.856-.031.423.627.42.659 0 .386-5.131 1.352-10.234 2.285-15.288 1.31-7.092 2.78-14.155 4.297-21.206 1.552-7.209 3.165-14.404 4.813-21.59 1.29-5.622 2.6-11.238 3.926-16.85.387-1.639.777-3.277 1.164-4.914l.299-1.275c.335-1.453.237-2.867-.35-4.242-.369-.861-.888-1.63-1.36-2.434-.233-.399-.497-1.345-1.132-1.145-.509.16-.674.977-.784 1.417-.214.852-.555 1.61-.917 2.42-2.114 4.714-4.598 9.244-7.588 13.46-1.604 2.263-3.335 4.432-5.138 6.539-.941 1.1-2.022 2.068-2.868 3.251-.456.638-.912 1.375-1.008 2.168-.029.23-.005.44.025.667-.017-.131.01.1.013.146.042.588.054 1.178.068 1.766.131 5.65.106 11.304.15 16.955.051 6.597.087 13.2.359 19.793.079 1.918.122 3.873.435 5.77.673 4.091.604 8.259.343 12.385-.056.885-.12 1.77-.21 2.653-.043.421.616.418.659 0M50.466 66.92c-2.267 2.043-3.421 5.057-3.495 8.074-.087 3.509 1.225 6.715 2.835 9.76.792 1.499 1.613 3.008 2.065 4.651.226.82.256 1.625.345 2.46.033.31.087.62.13.93.24 1.69.477 3.378.715 5.067l1.187 8.418 1.482 10.511 1.616 11.464 1.593 11.294 1.387 9.84 1.025 7.27c.166 1.172.281 2.364.498 3.529.009.05.014.101.02.152.06.418.694.24.636-.175l-.337-2.388-.901-6.392-1.303-9.24-1.534-10.879-1.616-11.467-1.53-10.85-1.28-9.076-.866-6.148-.226-1.603c-.082-.581-.072-1.162-.16-1.743-.498-3.303-2.665-6.032-3.882-9.073-1.283-3.202-1.746-6.814-.515-10.105.546-1.46 1.419-2.772 2.576-3.815.316-.284-.151-.75-.465-.466" transform="translate(1 1)"/>
        <path fill="#8316B5" stroke="#8316B5" stroke-width=".4" d="M46.529 73.646c-1.52 2.696-3.303 5.232-5.332 7.569-.277.318.187.786.465.466 2.065-2.38 3.889-4.958 5.436-7.703.208-.37-.36-.702-.57-.332" transform="translate(1 1)"/>
        <path fill="#8316B5" stroke="#8316B5" stroke-width=".4" d="M54.895 161.545c.072-4.957-.63-9.917-1.56-14.775-1.052-5.508-2.46-10.946-4.04-16.326-1.512-5.154-3.192-10.258-4.986-15.32-1.37-3.868-2.809-7.712-4.315-11.529-.468-1.183-.941-2.364-1.423-3.54-.148-.362-.298-.723-.448-1.083-.077-.184-.139-.446-.255-.608-.014-.019-.02-.047-.03-.07l-.05.4c1.486-1.383 3.028-2.85 4.178-4.532.417-.612.89-1.469.066-1.962-.93-.557-2.254-.592-3.304-.679-.979-.08-1.964-.122-2.946-.123l.284.496 4.705-9.196.68-1.329c.131-.255-.084-.552-.371-.483-5.087 1.226-10.162 2.497-15.224 3.818-4.6 1.2-9.305 2.285-13.665 4.224-1.06.471-2.095.997-3.09 1.592-.378.225-.72.477-1.114.654-.81.367-1.328 1.105-1.667 1.908-.73 1.732-.788 3.761-.603 5.607.18 1.796.61 3.561.506 5.378-.064 1.133-.36 2.192-.665 3.279-.275.978-.48 1.977-.642 2.98-.323 1.99-.488 4.005-.574 6.018-.067 1.561.035 3.15-.086 4.706-.044.576-.278 1.018-.732 1.37-.355.274-.751.49-1.037.845-.805 1.002-.285 2.248-.248 3.39.035 1.097-.18 2.192-.403 3.26-.68 3.256-1.436 6.467-1.706 9.792-.237 2.91-.092 5.82-.017 8.733.065 2.559.133 5.117.23 7.675.23 6.003.575 12.019 1.387 17.975.36 2.633.807 5.266 1.508 7.832.52 1.905 1.165 3.893 2.31 5.524.795 1.134 1.788 1.922 3.181 2.103 1.109.144 2.222.259 3.334.374 3.945.405 7.896.753 11.848 1.081 5.286.44 10.576.836 15.869 1.184 5.47.36 10.945.67 16.424.874 4.488.168 8.989.294 13.479.153 1.535-.047 3.075-.122 4.598-.32.888-.116 1.907-.224 2.7-.678.765-.436.55-1.02.524-1.75-.064-1.775.085-3.566.206-5.336.365-5.342.876-10.674 1.146-16.023.118-2.353.211-4.716.11-7.071-.056-1.297-.039-3-.76-4.145-.235-.374-.562-.589-1.008-.57-1.004.043-2.035.299-3.022.47-3.725.649-7.441 1.349-11.167 1.988-4.547.78-9.114 1.54-13.71 1.96-1.734.158-3.466.249-5.205.157-1.314-.069-2.626-.156-3.938-.242-3.223-.212-6.447-.433-9.674-.587-2.91-.138-5.841-.263-8.754-.114-.967.05-1.955.117-2.9.344-.54.131-1.112.317-1.417.813-1.226 1.987-2.771 3.734-3.79 5.857-1.515 3.151-1.84 6.605-.84 9.967.03.099.12.215.23.23.562.076 1.195-.043 1.58-.49.871-1.009-.078-2.474-.384-3.508-.412-1.392-.53-2.875-.576-4.32-.049-1.566.005-3.154.247-4.704.103-.661.236-1.327.466-1.957.132-.362.314-.836.694-1.003.261-.115.18-.54-.08-.601-2.441-.566-5.106.753-6.749 2.477-.908.954-1.628 2.078-2.198 3.262-.153.318-.296.642-.43.968-.09.216-.248.47-.253.707-.002.098.029.215.075.3.685 1.27 2.661-2.069 2.846-2.355 1.79-2.76 3.673-5.528 6.789-6.884.387-.168.052-.736-.333-.568-2.156.938-3.786 2.549-5.18 4.409-.923 1.23-1.689 2.564-2.59 3.807-.251.346-.513.702-.827.995-.071.066-.158.118-.227.183-.1.094-.046-.028 0 .032.107.135.088.05.098.04.035-.036-.031.094.007.033.225-.353.34-.798.52-1.18.513-1.096 1.146-2.148 1.955-3.053 1.087-1.214 2.481-2.133 4.086-2.475.716-.153 1.616-.207 2.237-.063l-.079-.602c-.756.333-1.04 1.428-1.22 2.144-.337 1.332-.457 2.726-.507 4.095-.055 1.52-.003 3.05.203 4.56.087.633.2 1.266.377 1.882.193.665.551 1.28.675 1.965.085.477.05 1.005-.46 1.197-.132.05-.274.066-.415.071-.052.002-.356-.024-.171.001l.23.23c-1.05-3.528-.553-7.095 1.204-10.3.62-1.131 1.358-2.186 2.123-3.221.287-.387.578-.77.85-1.168.143-.211.332-.602.45-.73.348-.378 1.182-.47 1.694-.548 1.068-.162 2.157-.201 3.235-.225 3.01-.066 6.024.075 9.029.236 3.097.166 6.191.384 9.287.583 1.241.08 2.486.178 3.73.21 1.934.047 3.878-.142 5.8-.352 8.016-.879 15.927-2.508 23.869-3.876.856-.147 1.763-.38 2.635-.397.076-.001.126.018.235.144.077.086.19.301.251.456.555 1.427.51 3.156.532 4.658.074 5.15-.398 10.312-.799 15.44-.19 2.432-.39 4.863-.545 7.296-.103 1.61-.248 3.256-.132 4.869.007.105.016.209.029.313.007.069.02.138.027.207.015.115-.01-.056.002.02.017.102.017-.041-.01.056.018-.065.004 0-.04.057.068-.091-.034.032-.063.056.01-.009-.025.024-.101.07-.151.089-.252.132-.357.171-.955.356-2.013.46-3.02.558-3.709.359-7.468.3-11.189.231-5.114-.095-10.225-.33-15.331-.616-5.403-.302-10.8-.668-16.194-1.078-4.605-.35-9.207-.73-13.805-1.155-2.716-.25-5.443-.477-8.146-.843-1.244-.168-2.215-1.17-2.89-2.289-1.053-1.745-1.647-3.762-2.135-5.727-1.366-5.5-1.86-11.224-2.237-16.864-.358-5.347-.51-10.703-.648-16.06-.077-3.009-.198-6.006.1-9.009.315-3.173 1.106-6.232 1.716-9.351.197-1.01.375-2.05.316-3.083-.063-1.113-.585-2.342.457-3.15.348-.27.735-.483 1.024-.824.381-.452.528-1.02.55-1.603.058-1.524.014-3.052.08-4.578.085-2.011.245-4.027.578-6.014.339-2.024 1.122-3.969 1.286-6.016.292-3.675-1.477-7.42.069-11.006.292-.678.76-1.28 1.372-1.551.622-.276 1.197-.721 1.796-1.056 1.016-.567 2.07-1.068 3.143-1.515 4.374-1.82 9.057-2.88 13.63-4.067 4.782-1.242 9.576-2.44 14.38-3.598l-.373-.483-4.704 9.195-.68 1.328c-.112.219.024.495.284.495 1.776.002 3.729-.007 5.438.517.203.061.61.175.629.373.03.281-.332.711-.477.92-.674.975-1.516 1.842-2.342 2.688-.557.57-1.125 1.131-1.709 1.674-.117.11-.108.266-.05.4l.094.224c.118.282.235.563.351.845.427 1.034.847 2.072 1.26 3.11 1.436 3.603 2.808 7.23 4.121 10.877 1.771 4.92 3.436 9.877 4.95 14.881 1.626 5.363 3.088 10.782 4.232 16.27 1.033 4.954 1.848 10.001 1.953 15.07.011.547.012 1.094.004 1.64-.006.424.652.424.659 0" transform="translate(1 1)"/>
        <path stroke="#8316B5" d="M8.139 91.727s8.86 3.19 9.923 14.177c1.063 10.986 8.683 16.833 8.683 37.389M122.788 91.196s-6.025 5.315-8.15 17.011c-2.128 11.695-3.19 22.682-6.38 29.77-3.19 7.088-4.253 13.822-4.253 13.822-1.772-7.443-14.885-1.064-17.72 2.835-2.836 3.899-8.86 3.19-8.86 3.19s-1.772.354-1.064 2.126c.71 1.772.542 32.06-1.146 33.042-1.689.98 2.427-.052 2.427-.052" transform="translate(1 1)"/>
        <path stroke="#8316B5" d="M80.26 175.19s2.48-3.899 7.797-3.19c5.316.709 17.72-4.608 18.783-8.86 0 0 1.772-2.127 0-3.19-1.772-1.063-1.772-1.772-1.418-3.898.355-2.127-.354-2.127-1.418-4.253M40.927 162.035s-.36-3.502-3.55-6.338c-3.19-2.835-4.962-8.506-6.734-9.923-1.772-1.418-10.278-6.38-12.404-6.38-.792 0-4.253 1.773 0 3.899 1.307.653 11.695 7.088 10.987 7.442-.71.355-10.987-9.568-15.24-9.568s-1.772 3.19 0 4.253c1.772 1.062 13.822 9.568 13.822 10.986 0 1.418-12.404-11.695-16.303-10.277-3.898 1.417 13.467 13.112 13.113 14.176-.354 1.062-8.15-8.152-10.632-7.089-2.48 1.064 4.962 7.089 4.962 7.089M79.374 97.752s-.11-10.184-2.127-10.632c-3.19-.709-11.16 8.827-11.16 8.827M60.945 88.538s-2.835-4.253-5.67-3.544c-2.836.708-1.416 16.187-1.416 16.187" transform="translate(1 1)"/>
        <path fill="#8316B5" stroke="#8316B5" stroke-width=".3" d="M20.837 191.145c.034 2.923-.326 5.834-1.107 8.652-.183.66-.326 1.518-.869 1.98-.502.425-1.311.48-1.94.505-1.392.057-2.749-.3-3.954-.993v.568c2.588-1.229 5.474-.747 8.125.005 2.718.772 5.36 1.742 8.118 2.376 5.675 1.304 11.529 1.88 17.328 2.27 12.062.812 24.168.372 36.214-.484 5.25-.373 10.561-.639 15.778-1.406 6.535-.96 12.97-2.658 19.193-4.857 9.654-3.411 18.852-8.119 27.25-13.974 1.238-.863 2.457-1.751 3.66-2.661.334-.253.007-.824-.332-.568-8.57 6.479-18.037 11.75-28.075 15.583-6.604 2.523-13.46 4.467-20.44 5.619-4.525.746-9.128 1.006-13.695 1.358-12.044.927-24.142 1.513-36.22.925-5.962-.29-11.966-.79-17.84-1.89-2.835-.531-5.596-1.278-8.337-2.172-2.443-.796-5-1.642-7.603-1.538-1.208.049-2.364.328-3.455.846-.228.108-.202.453 0 .568 1.3.749 2.781 1.145 4.286 1.083 1.253-.05 2.485-.325 3.007-1.584.647-1.561.958-3.352 1.21-5.016.26-1.72.377-3.455.356-5.195-.005-.423-.663-.424-.658 0" transform="translate(1 1)"/>
        <path stroke="#8316B5" d="M25.15 142.407s-.709-19.492-7.797-23.036c-7.088-3.544 7.088 10.278 9.569 24.1M301.815 175.494s63.705-4.447 71.59.71c0 0-2.127-11.342 6.733-14.177 8.86-2.835 16.657-1.418 14.177-9.924-2.481-8.505-1.418-24.808 2.48-28.352 3.899-3.544 4.253-3.19 4.253-1.772s4.607 6.025-1.772 12.759c-6.38 6.734-18.074 24.808-22.327 49.616 0 0-27.29-2.126-34.732 4.253 0 0-.354-20.91 5.67-22.682 6.025-1.772 1.064 24.1-4.252 35.44 0 0 13.467 1.064 26.58 4.608 13.113 3.544 14.885 6.379 25.872 7.442 0 0-3.544 12.76-50.68 3.19-47.136-9.569-38.984-6.379-40.048-1.772-1.063 4.607 9.746-1.24 9.746-1.24.355-2.481 5.67-15.24 0-14.885-5.67.354-21.018 13.016-25.871-6.734-7.62-31.01 23.922-87.715 32.428-90.55 8.506-2.835 14.176-9.569 23.39-9.569 0 0-6.733 7.797-6.379 14.53l.355 6.734s-5.671-14.176 2.126-27.29c0 0-18.429-30.478 18.429-55.286 0 0-4.607-5.316-9.57 0-4.96 5.316-8.859 50.325 15.24 52.806 0 0 10.632-1.417 17.72-10.278 0 0 7.443 11.341 6.735 17.012-.71 5.67-12.405 20.555-10.988 24.1 1.418 3.544-7.796-20.202-13.82-19.493-6.026.709-13.114 23.037-14.531 31.188-1.418 8.151 2.126 17.72-2.836 20.2-4.961 2.481-2.835-7.796-1.418-8.505 1.418-.709 9.57-3.898 8.86-9.924-.708-6.024-10.631-21.264-6.733-36.857 0 0 8.506 2.835 7.443 0-1.064-2.835-12.05-9.924-11.695-12.759.354-2.835 7.442 7.443 7.442 4.962s-18.075-15.24-14.885-40.757c3.19-25.516 12.404-30.124 24.454-28.707 0 0 2.126 1.064.708 12.405 0 0-.354 5.67 8.86 9.214 9.215 3.544 22.683 16.657 20.91 35.795 0 0 .71 14.53-9.568 17.012-10.278 2.48-15.24 3.898-13.468 4.961 1.772 1.063 17.366-6.734 30.833 5.67 13.468 12.404 24.809 7.797 19.138 36.15-5.67 28.352-2.835 62.73-20.91 74.07 0 0-5.316 7.797-36.15 0-30.832-7.796-36.503-8.506-35.794-12.758.71-4.253 1.063-26.935 10.278-28.707l-12.404-.354-1.772-1.418c-3.19-2.835-4.962-8.506-6.734-9.923-1.772-1.418-10.278-6.38-12.404-6.38-.793 0-4.253 1.772 0 3.899 1.307.653 11.696 7.087 10.986 7.442-.708.355-10.986-9.569-15.24-9.569-4.252 0-1.77 3.19 0 4.253 1.773 1.063 13.823 9.569 13.823 10.987 0 1.417-12.405-11.696-16.303-10.278-3.898 1.417 13.468 13.113 13.113 14.176-.354 1.064-8.151-8.151-10.632-7.088-2.481 1.063 4.961 7.088 4.961 7.088l4.962 4.962" transform="translate(1 1)"/>
        <path stroke="#8316B5" d="M388.564 78.947c.273-4.757-2.755-17.57-2.755-17.57-7.797-33.315-27.998-37.213-27.998-37.213l3.367-10.81s21.264-8.15 30.833 13.468c9.569 21.618 6.896 44.037-3.64 56.573" transform="translate(1 1)"/>
    </g>
</svg>
